<svg viewBox="0 0 24 24" fill="none" stroke="currentColor" stroke-width="1.5" stroke-linecap="round" stroke-linejoin="round" xmlns="http://www.w3.org/2000/svg">
  <path d="M 12 21 C 6 19 4 13 5 8 C 5.5 5.5 7 4 9 3.5"></path>
  <ellipse cx="6.2" cy="14.5" rx="2.2" ry="0.95" transform="rotate(-55 6.2 14.5)"></ellipse>
  <ellipse cx="6.2" cy="10.5" rx="2.2" ry="0.95" transform="rotate(-65 6.2 10.5)"></ellipse>
  <ellipse cx="7.6" cy="6.8" rx="2.0" ry="0.85" transform="rotate(-75 7.6 6.8)"></ellipse>
  <path d="M 12 21 C 18 19 20 13 19 8 C 18.5 5.5 17 4 15 3.5"></path>
  <ellipse cx="17.8" cy="14.5" rx="2.2" ry="0.95" transform="rotate(55 17.8 14.5)"></ellipse>
  <ellipse cx="17.8" cy="10.5" rx="2.2" ry="0.95" transform="rotate(65 17.8 10.5)"></ellipse>
  <ellipse cx="16.4" cy="6.8" rx="2.0" ry="0.85" transform="rotate(75 16.4 6.8)"></ellipse>
</svg>